<svg xmlns="http://www.w3.org/2000/svg" viewBox="0 0 310 369.69"><defs><style>.cls-1{fill:#fff;}.cls-2{fill:none;stroke:#231f20;stroke-miterlimit:10;stroke-width:3px;}</style></defs><g id="Layer_2" data-name="Layer 2"><g id="Layer_1-2" data-name="Layer 1"><path class="cls-1" d="M139.29,326.9H14.82V31.72H310V326.9H154.42a5,5,0,0,1-3.09-4.25c-.69-5.11-1.79-10.15-1.59-15.39A16.59,16.59,0,0,1,154,296.18a18.68,18.68,0,0,0,2.69-3.74c1.36-2.54,3-4.49,6.18-5.08,2.47-.47,4.38-2.18,5.49-5.06-2.89-.34-4.6,1.12-6.16,2.62a103,103,0,0,0-9,10,31.58,31.58,0,0,1-5.29,5.36,4.83,4.83,0,0,1-6.24,0c-1.73-1.43-.41-3.22.22-4.94,2.7-7.37,9-12,13.44-18.06.64-.88,1.59-1.57,1.73-2.7-.59-1.23-1.68-1.08-2.6-1a34.91,34.91,0,0,0-14.3,4.4c-3.1,1.67-4.29,4.6-3,8.26,1.91,5.49,1.66,11.66,5.36,16.58a4,4,0,0,1,.52,2.85c-.76,6.1-2,12.14-1.72,18.34C141.36,325.29,140.14,326,139.29,326.9Z"/><path d="M139.29,326.9c.49-6.83,1.07-13.64,1.39-20.47.07-1.56-.35-4-1.34-4.56-2.77-1.47-2-3.79-2.46-6-.84-4.23-2-8.4-3.28-13.93,1.87-8.59,11.56-8.15,18.86-10.81,2.81-1,6.72.94,10.1,1.53-6.69,9-15.84,15-19.16,25.32l1.33,1.3c2.18-2,4.37-4,6.54-6,5-4.61,10-9.22,14.9-13.89.41-.39.39-1.24.68-2.29l7.36,4.13c-4,3.3-7.05,6.3-10.55,8.68-6.89,4.67-12.25,10.35-11.86,19.16.26,6,1.71,11.86,2.62,17.79Z"/><path d="M210,140.56l6.24-.6.23,1-3.7,2.46c5.92,0,6.48.54,5.94,6.38-.65,7.09-1.41,14.18-2.24,21.26-.15,1.25-.92,2.44-1.7,4.41l-2.17-3.73c-.18.46-.48.84-.4,1.09,1.56,4.68.48,7.83-4.73,9.11a4,4,0,0,0-2.37,2.78c-.62,8.48-2.76,17.37-1,25.38,2.11,9.59-2.94,14.09-8.51,19.08-8.62,7.72-17.28,15.42-26.33,22.63-3.12,2.49-7.46,3.43-11.2,5.19-1.49.7-3.53,1.37-4.14,2.62-1.49,3.05-3.71,2.71-6.49,3.05C138,263.84,133,257.5,127.78,251.6a14.11,14.11,0,0,1-3-7.2,16.81,16.81,0,0,0-7.17-12.17c-10.52-7.5-15.69-18.31-18.94-30.32-3.43-12.66-6.93-25.31-10-38-1-3.88-.59-8.06-1.06-12.08-1.17-10-3.27-19.91-3.53-29.89-.29-11.15.71-22.37,1.77-33.49.7-7.29,4-13,9.6-18.68,7.59-7.62,16.11-13.51,25-19.06a40.4,40.4,0,0,1,24.71-6.07c10.67.77,21,3.11,30.44,8.26S194.15,64,201.15,72.58c6.34,7.76,8.47,16.9,8.66,26.51.26,13.28,0,26.58-.08,39.87A8.33,8.33,0,0,0,210,140.56Z"/><path d="M203.07,263.25l16.3-23.49C215,248.93,210.68,256.93,203.07,263.25Z"/><path d="M119.7,279.05q.45,5.4.92,10.79l-1,.09-.78-10.71Z"/><path class="cls-1" d="M143.3,200.49H123.7l-.36-.93a47.26,47.26,0,0,1,5.2-4.53c3.31-2.15,3-3.9.31-5.53-4.57,2.19-8.63,5.22-13.07,5.91-3.56.55-7.18-1-7.36,4.46-1.16-.35-2.72-.35-3.42-1.12a29.63,29.63,0,0,1-4.53-6.33A86,86,0,0,1,97.22,184c-.77-2-1.67-4-2.36-6-1.12-3.27-2.51-6.52-3-9.9-.45-2.88,3.61-5,7.5-4.73a94.34,94.34,0,0,0,11.65,0c1.33-.08,2.6-1.1,3.9-1.69l-.34-1.17c-2.72.5-5.43,1.13-8.17,1.41-1,.09-2-.7-3-1.09.78-.74,1.43-1.78,2.36-2.16,2.18-.91,4.55-1.35,6.7-2.31.94-.41,1.39-1.82,2.29-2.44a12.24,12.24,0,0,1,3.07-1.06v3l4.38-1.1c-1.88-2.42-3.19-4.66-5-6.23-.73-.62-2.79,0-4.1.49-2.51.9-4.92,2.08-8,3.42l.67-3c-1.29.08-2.62.48-3.76.17-3.16-.85-4.34.36-4.73,3.42a5.43,5.43,0,0,1-2.28,3.21,3.05,3.05,0,0,1-3-.16,3,3,0,0,1,.1-2.92c3.45-3.78,6.73-7.87,10.78-10.93s8.6-.72,12.75,1a18.92,18.92,0,0,1,2.43,1.65c8.4,5.12,7.91,5,4.91,14.35-1.34,4.21-.22,9.2-.22,13.92,6.26-.85,7.51-3.34,5-7.91a5.37,5.37,0,0,1-.23-4.44c5.72-9.74,5.57-11.35-3.4-18.17-2.18-1.66-4.9-2.59-7.85-4.11-.36-5.83-5.48-6.64-17-3.85.64-2.06.79-3.8,1.66-5a22.06,22.06,0,0,1,4.33-3.94c2.38-1.86,3.4-4,2-6.94a6.94,6.94,0,0,1-.4-1.19c-2.94-9.26.31-17.49,9.63-20.28,6.65-2,13.26-5.16,20.71-4.28,6.17.73,12.28,1.27,17.35,5.26,1,.75,2.07,2.38,1.86,3.35-1.06,5.07,1.46,9.21,3.76,13,1.55,2.56,5,3.94,8.07,6.15-.43,3.17-3.78,3.26-6.37,4.18-3,1.06-6.26,1.62-9.11,3-1.4.68-2.12,2.73-2.66,4.57a14.9,14.9,0,0,0-7.48,8.94,13,13,0,0,1-3.36,5.73c-3.31,2.78-2.15,5.52-.86,8.52,1.89,4.35,3.64,8.76,5.68,13A6.89,6.89,0,0,0,147,171.4c1.07.6,2.59.48,3.54,1.18a4,4,0,0,1,1.63,3c-.1.71-1.84,1.8-2.72,1.69-5.26-.65-9.32.72-12.16,5.52-.38.64-2.93.49-4.18,0s-1.8-2.24-3-2.85c-1.36-.71-3.26-1.38-4.54-.94-1,.33-2,2.57-1.8,3.68.28,1.33,1.83,2.48,3,3.48.51.43,1.5.29,3.38.59l-2.81-4.34c3.26,1.37,6.19,3.56,9.11,3.55,2.71,0,5.41-2.37,8.12-3.7l1,1c-.75,1-1.52,2.07-2.23,3.14-.86,1.3-1.67,2.65-2.51,4a23.1,23.1,0,0,0,4.41,1.8c5.17,1,10.38,1.75,16.75,2.79l-14.94,5C146.3,203.29,144.79,201.81,143.3,200.49Z"/><path class="cls-1" d="M150.87,188c.62-1.93.7-3.87,1.7-4.95,3.72-4,4.12-8.25,1.9-13.14a26.16,26.16,0,0,1-1.69-6.88c-.63-4.19-.3-8.3-4.18-11.78-3.31-3-.52-11.47,3.93-14.31,2.57-1.64,5.19-3.21,7.83-4.74.83-.48,1.94-1.16,2.72-1,5.68,1.43,11.9.21,17.18,3.6,1.15.73,2.8.79,3.78,1.66a11.88,11.88,0,0,1,2.65,4c.14.32-1.27,1.91-1.7,1.8a7.58,7.58,0,0,1-3.89-1.89c-2.66-3.09-5.92-3.66-10-2.15-2.56.95-5.51.8-8.24,1.35-3.19.63-6.74.62-7.33,5.33-.15,1.2-2.6,2.1-4,3.14l1.15,1.41,7-4.41,10.62,4.79a29.55,29.55,0,0,1-4.06,2.44c-1.54.66-3.27.89-4.85,1.59,7.52.78,15.29,2.63,20-5.11,1.89,3.45,4.37,6.58,5.32,10.13a12.92,12.92,0,0,1-1,8.8c-2.69,4.8-3,9.82-3.09,15s-3.13,8.2-8.47,7.44c-3.75-.53-7.43-1.7-11.19-2.07S155.52,188,150.87,188Z"/><path class="cls-1" d="M110.24,209.19c8.13-2.48,7.76-2.21,11.87,3.49,1.79,2.47,5.31,3.94,8.31,5.24s6.11,1.69,9.2,2.42a2.75,2.75,0,0,0,1.62-.19c4.4-1.93,8.9-3.68,13.09-6,2.09-1.14,3.75-3.18,5.35-5,2-2.37,3.28-5.95,5.78-7.22,3.61-1.84,7.92-2.18,9.18-7a3.26,3.26,0,0,1,2.57,0c.74.61,1.59,2.16,1.29,2.77-1.91,3.94-4.1,7.73-6.25,11.54-.12.21-.78.12-1.47.21l-1-3.28-1-.7a4.83,4.83,0,0,0-.43,1.62c.29,2.34.74,4.66,1,7,.69,5.52-.34,6.56-5.66,7.53-1.77.32-3.29,2-4.93,3.08-2.39,1.54-4.64,3.43-7.22,4.51-3.67,1.53-7.59,2.47-11.4,3.66l.28,1.1c-3.34-1-6.7-2-10-3.06-.77-.25-1.92-.66-2.09-1.23-1.54-5.34-6.26-6.1-10.31-8.48C114.5,219.05,113,213.61,110.24,209.19Z"/><path class="cls-1" d="M154.26,204.42l2.54,5c-2.51,1.08-5.1,2.83-7.9,3.28a130.92,130.92,0,0,1-18.33,1.68c-1.79,0-5.06-1.94-5.16-3.2-.23-2.94,2.53-3.66,5.3-3.94C138.56,206.42,146.38,205.38,154.26,204.42Z"/><path class="cls-1" d="M143.3,200.49l3.77-.59h8.22c-5.88,5.27-22.21,7.42-27.77,3.36Z"/><path class="cls-1" d="M214.41,159.57c-.08,1.59-.13,3.18-.3,4.75a5.92,5.92,0,0,1-1.42.14V159.6Z"/><rect class="cls-1" y="263.84" width="278.64" height="105.85"/><rect class="cls-1" x="200.81" y="231.98" width="26.46" height="31.65"/><path class="cls-2" d="M4.64,97.63V214.06A29.37,29.37,0,0,0,19,239.33l121.34,71.95a29.39,29.39,0,0,0,30,0L290.3,239.8a29.39,29.39,0,0,0,14.34-25.24V97.63a29.39,29.39,0,0,0-15.16-25.72L168.87,5.17a29.44,29.44,0,0,0-28.46,0L19.8,71.91A29.41,29.41,0,0,0,4.64,97.63Z"/></g></g></svg>